<svg width="12" height="12" viewBox="0 0 16 16" fill="none" xmlns="http://www.w3.org/2000/svg">
<g clip-path="url(#clip0_39_83382)">
<path d="M3.81177e-05 4.66656C-0.000469233 4.57883 0.0163479 4.49185 0.0495243 4.41063C0.0827007 4.3294 0.131585 4.25552 0.193373 4.19323C0.255347 4.13075 0.329081 4.08115 0.41032 4.0473C0.49156 4.01346 0.578696 3.99603 0.666704 3.99603C0.754712 3.99603 0.841849 4.01346 0.923089 4.0473C1.00433 4.08115 1.07806 4.13075 1.14004 4.19323L6.5867 9.6399C6.9617 10.0144 7.47003 10.2248 8.00003 10.2248C8.53003 10.2248 9.03836 10.0144 9.41336 9.6399L14.86 4.19323C14.9856 4.0677 15.1558 3.99717 15.3334 3.99717C15.5109 3.99717 15.6812 4.0677 15.8067 4.19323C15.9322 4.31877 16.0027 4.48903 16.0027 4.66656C16.0027 4.8441 15.9322 5.01436 15.8067 5.1399L10.36 10.5866C10.0504 10.897 9.68255 11.1433 9.27758 11.3113C8.87262 11.4794 8.43848 11.5659 8.00003 11.5659C7.56158 11.5659 7.12744 11.4794 6.72247 11.3113C6.31751 11.1433 5.94967 10.897 5.64003 10.5866L0.193373 5.1399C0.131585 5.0776 0.0827007 5.00373 0.0495243 4.9225C0.0163478 4.84128 -0.000469241 4.7543 3.81177e-05 4.66656Z" fill="#4F008C"/>
</g>
<defs>
<clipPath id="clip0_39_83382">
<rect width="16" height="16" fill="white" transform="translate(16) rotate(90)"/>
</clipPath>
</defs>
</svg>
