<svg width="16" height="16" viewBox="0 0 24 24" fill="none" xmlns="http://www.w3.org/2000/svg">
<g clip-path="url(#clip0_39_81630)">
<path d="M17.0001 1.1532e-05C17.1317 -0.000749512 17.2621 0.0244752 17.384 0.0742398C17.5058 0.124004 17.6166 0.197331 17.7101 0.290012C17.8038 0.382975 17.8782 0.493574 17.929 0.615435C17.9797 0.737293 18.0059 0.867998 18.0059 1.00001C18.0059 1.13202 17.9797 1.26273 17.929 1.38459C17.8782 1.50644 17.8038 1.61705 17.7101 1.71001L9.54006 9.88C8.97826 10.4425 8.6627 11.205 8.6627 12C8.6627 12.795 8.97826 13.5575 9.54006 14.12L17.7101 22.29C17.8984 22.4783 18.0042 22.7337 18.0042 23C18.0042 23.2663 17.8984 23.5217 17.7101 23.71C17.5218 23.8983 17.2664 24.0041 17.0001 24.0041C16.7338 24.0041 16.4784 23.8983 16.2901 23.71L8.12006 15.54C7.65443 15.0755 7.285 14.5238 7.03294 13.9163C6.78087 13.3089 6.65112 12.6577 6.65112 12C6.65112 11.3423 6.78087 10.6911 7.03293 10.0837C7.285 9.47621 7.65443 8.92446 8.12006 8.46L16.2901 0.290013C16.3835 0.197331 16.4943 0.124004 16.6162 0.0742399C16.738 0.0244752 16.8685 -0.000749489 17.0001 1.1532e-05Z" fill="white"/>
</g>
<defs>
<clipPath id="clip0_39_81630">
<rect width="24" height="24" fill="white" transform="translate(24 24) rotate(180)"/>
</clipPath>
</defs>
</svg>
