<svg width="12" height="12" viewBox="0 0 16 16" fill="none" xmlns="http://www.w3.org/2000/svg">
<g clip-path="url(#clip0_2256_23426)">
<path d="M16 11.3334C16.0005 11.4211 15.9837 11.5081 15.9505 11.5893C15.9173 11.6705 15.8684 11.7444 15.8066 11.8067C15.7447 11.8692 15.6709 11.9188 15.5897 11.9526C15.5084 11.9865 15.4213 12.0039 15.3333 12.0039C15.2453 12.0039 15.1582 11.9865 15.0769 11.9526C14.9957 11.9188 14.9219 11.8692 14.86 11.8067L9.4133 6.36004C9.0383 5.98551 8.52997 5.77513 7.99997 5.77513C7.46997 5.77513 6.96164 5.98551 6.58664 6.36004L1.13998 11.8067C1.01444 11.9322 0.844181 12.0028 0.666647 12.0028C0.489113 12.0028 0.31885 11.9322 0.193314 11.8067C0.0677786 11.6812 -0.00274658 11.5109 -0.00274657 11.3334C-0.00274657 11.1558 0.0677786 10.9856 0.193314 10.86L5.63997 5.41337C5.94961 5.10295 6.31745 4.85667 6.72242 4.68862C7.12738 4.52058 7.56152 4.43408 7.99997 4.43408C8.43842 4.43408 8.87256 4.52058 9.27753 4.68862C9.68249 4.85667 10.0503 5.10295 10.36 5.41337L15.8066 10.86C15.8684 10.9223 15.9173 10.9962 15.9505 11.0774C15.9837 11.1587 16.0005 11.2456 16 11.3334Z" fill="#4F008C"/>
</g>
<defs>
<clipPath id="clip0_2256_23426">
<rect width="16" height="16" fill="white" transform="translate(0 16) rotate(-90)"/>
</clipPath>
</defs>
</svg>
