<svg width="16" height="16" viewBox="0 0 24 24" fill="none" xmlns="http://www.w3.org/2000/svg">
<path d="M17.8934 14.6863L17.8864 8.61222C17.8848 8.08385 17.6742 7.57757 17.3006 7.20396C16.927 6.83034 16.4207 6.61975 15.8923 6.61818L9.81826 6.61111C9.55408 6.61189 9.30094 6.71719 9.11413 6.904C8.92732 7.0908 8.82203 7.34394 8.82124 7.60813C8.8207 7.74014 8.8463 7.87095 8.89657 7.99302C8.94684 8.11508 9.02078 8.22599 9.11413 8.31933C9.20747 8.41268 9.31838 8.48662 9.44045 8.53689C9.56251 8.58716 9.69332 8.61276 9.82533 8.61222H14.4781L6.69992 16.3904C6.51239 16.5779 6.40703 16.8323 6.40703 17.0975C6.40703 17.3627 6.51239 17.6171 6.69992 17.8046C6.88746 17.9921 7.14181 18.0975 7.40703 18.0975C7.67225 18.0975 7.9266 17.9921 8.11414 17.8046L15.8923 10.0264L15.8923 14.6792C15.8914 14.9446 15.9959 15.1994 16.1829 15.3877C16.3698 15.576 16.624 15.6823 16.8893 15.6833C17.1547 15.6842 17.4096 15.5797 17.5979 15.3927C17.7862 15.2058 17.8925 14.9516 17.8934 14.6863Z" fill="#FF375E"/>
</svg>
