<svg width="16" height="16" viewBox="0 0 24 24" fill="none" xmlns="http://www.w3.org/2000/svg">
<g clip-path="url(#clip0_39_81492)">
<path d="M18.7463 20.3341C18.8339 20.4321 18.9012 20.5465 18.9445 20.6706C18.9879 20.7947 19.0063 20.9261 18.9988 21.0574C18.9912 21.1886 18.9579 21.3171 18.9007 21.4354C18.8435 21.5538 18.7635 21.6597 18.6653 21.7471L17.0793 23.1611C16.8076 23.4301 16.4853 23.6427 16.1311 23.7867C15.7769 23.9307 15.3977 24.0032 15.0153 24.0001C14.6187 24.0009 14.2259 23.9234 13.8594 23.772C13.4928 23.6207 13.1598 23.3984 12.8793 23.1181L11.3353 21.7441C11.2372 21.6568 11.1573 21.551 11.1001 21.4327C11.0428 21.3145 11.0095 21.1862 11.0019 21.0551C10.9865 20.7903 11.0769 20.5302 11.2533 20.3321C11.4297 20.134 11.6775 20.014 11.9423 19.9986C12.0734 19.991 12.2048 20.0093 12.3288 20.0525C12.4529 20.0956 12.5672 20.1628 12.6653 20.2501L14.0003 21.4441V14.0001C14.0003 13.7349 14.1057 13.4805 14.2932 13.293C14.4807 13.1054 14.7351 13.0001 15.0003 13.0001C15.2655 13.0001 15.5199 13.1054 15.7074 13.293C15.8949 13.4805 16.0003 13.7349 16.0003 14.0001V21.4451L17.3353 20.2531C17.5332 20.0769 17.793 19.9864 18.0576 20.0016C18.3221 20.0168 18.5698 20.1364 18.7463 20.3341V20.3341ZM18.3563 7.36108C18.1846 7.30776 18.0288 7.21272 17.9028 7.08446C17.7768 6.9562 17.6846 6.79871 17.6343 6.62608C17.1048 4.92617 16.0234 3.45147 14.5612 2.43549C13.0991 1.41952 11.3398 0.920327 9.562 1.01697C7.78416 1.11362 6.08937 1.80057 4.74598 2.96906C3.4026 4.13755 2.4874 5.72079 2.1453 7.46808C1.79429 9.23509 2.07757 11.0693 2.9453 12.6481C1.93375 13.1703 1.11121 13.9963 0.593221 15.0101C0.075231 16.0238 -0.112183 17.1744 0.0573047 18.3001C0.317956 19.6079 1.01812 20.7872 2.04152 21.6422C3.06492 22.4971 4.34999 22.9763 5.6833 23.0001H8.0003C8.26552 23.0001 8.51987 22.8947 8.70741 22.7072C8.89495 22.5197 9.0003 22.2653 9.0003 22.0001C9.0003 21.7349 8.89495 21.4805 8.70741 21.293C8.51987 21.1054 8.26552 21.0001 8.0003 21.0001H5.6833C4.82926 20.9837 4.0055 20.6808 3.34429 20.14C2.68308 19.5992 2.22278 18.8519 2.0373 18.0181C1.92872 17.3016 2.0472 16.5692 2.37613 15.9235C2.70506 15.2779 3.22791 14.7514 3.8713 14.4181C4.3299 14.1646 4.67023 13.7408 4.81865 13.2383C4.96706 12.7358 4.91161 12.195 4.6643 11.7331C4.27601 10.9925 4.0468 10.179 3.99136 9.34467C3.93592 8.51033 4.05549 7.67363 4.34239 6.88821C4.62929 6.1028 5.07718 5.38603 5.65735 4.78387C6.23751 4.18171 6.93713 3.70747 7.71133 3.39156C8.48553 3.07565 9.31721 2.92505 10.153 2.94942C10.9888 2.97379 11.8103 3.17259 12.5648 3.53308C13.3193 3.89356 13.9901 4.40776 14.5342 5.0427C15.0783 5.67763 15.4837 6.41929 15.7243 7.22008C15.8723 7.70279 16.136 8.14204 16.4924 8.49966C16.8488 8.85728 17.2871 9.12244 17.7693 9.27208C19.0756 9.66957 20.2062 10.5028 20.9726 11.6328C21.7391 12.7628 22.0951 14.1214 21.9813 15.4821C21.906 16.5401 21.5195 17.5522 20.8703 18.3911C20.7087 18.6014 20.6372 18.8673 20.6716 19.1303C20.706 19.3934 20.8435 19.6319 21.0538 19.7936C21.2641 19.9552 21.53 20.0267 21.7931 19.9923C22.0561 19.9579 22.2947 19.8204 22.4563 19.6101C23.3373 18.4614 23.8654 17.0814 23.9763 15.6381C24.1273 13.8238 23.6519 12.0125 22.6292 10.5063C21.6065 9.00011 20.0984 7.89 18.3563 7.36108V7.36108Z" fill="white"/>
</g>
<defs>
<clipPath id="clip0_39_81492">
<rect width="24" height="24" fill="white"/>
</clipPath>
</defs>
</svg>
