<svg width="12" height="12" viewBox="0 0 18 18" fill="none" xmlns="http://www.w3.org/2000/svg">
<g clip-path="url(#clip0_3782_11324)">
<path d="M13.7544 1.09307L5.04585 9.80164C4.71324 10.1325 4.44955 10.526 4.27005 10.9594C4.09055 11.3928 3.99881 11.8575 4.00014 12.3266V13.2859C4.00014 13.4754 4.07539 13.657 4.20935 13.791C4.3433 13.925 4.52498 14.0002 4.71442 14.0002H5.67371C6.14282 14.0015 6.60754 13.9098 7.04096 13.7303C7.47438 13.5508 7.86789 13.2871 8.19871 12.9545L16.9073 4.24592C17.3247 3.82747 17.5591 3.26055 17.5591 2.66949C17.5591 2.07844 17.3247 1.51152 16.9073 1.09307C16.4828 0.687275 15.9181 0.460815 15.3309 0.460815C14.7436 0.460815 14.1789 0.687275 13.7544 1.09307ZM15.8973 3.23592L7.18871 11.9445C6.78594 12.3448 6.24157 12.5701 5.67371 12.5716H5.42871V12.3266C5.4302 11.7588 5.65554 11.2144 6.05585 10.8116L14.7644 2.10307C14.917 1.95732 15.1199 1.87599 15.3309 1.87599C15.5418 1.87599 15.7447 1.95732 15.8973 2.10307C16.0472 2.25343 16.1314 2.45713 16.1314 2.66949C16.1314 2.88186 16.0472 3.08556 15.8973 3.23592Z" fill="#4F008C"/>
<path d="M16.8572 6.84216C16.6677 6.84216 16.486 6.91742 16.3521 7.05137C16.2181 7.18533 16.1429 7.36701 16.1429 7.55645V11.1429H13.2857C12.7174 11.1429 12.1724 11.3686 11.7705 11.7705C11.3686 12.1724 11.1429 12.7174 11.1429 13.2857V16.1429H4.00002C3.4317 16.1429 2.88665 15.9171 2.48479 15.5152C2.08293 15.1134 1.85716 14.5683 1.85716 14V4.00002C1.85716 3.4317 2.08293 2.88665 2.48479 2.48479C2.88665 2.08293 3.4317 1.85716 4.00002 1.85716H10.4586C10.648 1.85716 10.8297 1.78191 10.9637 1.64795C11.0976 1.514 11.1729 1.33232 11.1729 1.14287C11.1729 0.953434 11.0976 0.771753 10.9637 0.637798C10.8297 0.503844 10.648 0.428589 10.4586 0.428589H4.00002C3.05316 0.429723 2.14542 0.806362 1.47589 1.47589C0.806362 2.14542 0.429723 3.05316 0.428589 4.00002L0.428589 14C0.429723 14.9469 0.806362 15.8546 1.47589 16.5241C2.14542 17.1937 3.05316 17.5703 4.00002 17.5714H12.1022C12.5714 17.5728 13.0362 17.4811 13.4698 17.3016C13.9033 17.1221 14.2969 16.8584 14.6279 16.5257L16.525 14.6272C16.8577 14.2964 17.1215 13.9029 17.3011 13.4695C17.4807 13.036 17.5726 12.5713 17.5714 12.1022V7.55645C17.5714 7.36701 17.4962 7.18533 17.3622 7.05137C17.2283 6.91742 17.0466 6.84216 16.8572 6.84216ZM13.6179 15.5157C13.3307 15.8022 12.9676 16.0004 12.5714 16.0872V13.2857C12.5714 13.0963 12.6467 12.9146 12.7807 12.7807C12.9146 12.6467 13.0963 12.5714 13.2857 12.5714H16.0893C16.0009 12.9668 15.8029 13.3293 15.5179 13.6172L13.6179 15.5157Z" fill="#4F008C"/>
</g>
<defs>
<clipPath id="clip0_3782_11324">
<rect width="17.1429" height="17.1429" fill="white" transform="translate(0.428589 0.428589)"/>
</clipPath>
</defs>
</svg>
