<svg width="12" height="12" viewBox="0 0 18 18" fill="none" xmlns="http://www.w3.org/2000/svg">
<g clip-path="url(#clip0_3782_11444)">
<path d="M16.3706 3.59363L6.49988 13.4636C6.43351 13.5303 6.35465 13.5831 6.2678 13.6192C6.18096 13.6553 6.08784 13.6738 5.99381 13.6738C5.89977 13.6738 5.80665 13.6553 5.71981 13.6192C5.63297 13.5831 5.5541 13.5303 5.48773 13.4636L1.67059 9.64291C1.60423 9.57629 1.52536 9.52342 1.43852 9.48735C1.35167 9.45128 1.25856 9.43271 1.16452 9.43271C1.07048 9.43271 0.977369 9.45128 0.890524 9.48735C0.80368 9.52342 0.724813 9.57629 0.658449 9.64291C0.591823 9.70928 0.538956 9.78815 0.502884 9.87499C0.466811 9.96184 0.448242 10.0549 0.448242 10.149C0.448242 10.243 0.466811 10.3361 0.502884 10.423C0.538956 10.5098 0.591823 10.5887 0.658449 10.6551L4.47702 14.4729C4.87984 14.875 5.42573 15.1008 5.99488 15.1008C6.56402 15.1008 7.10991 14.875 7.51273 14.4729L17.3827 4.60506C17.4493 4.53871 17.502 4.45989 17.538 4.37311C17.574 4.28633 17.5926 4.1933 17.5926 4.09934C17.5926 4.00539 17.574 3.91236 17.538 3.82558C17.502 3.7388 17.4493 3.65998 17.3827 3.59363C17.3164 3.527 17.2375 3.47414 17.1507 3.43806C17.0638 3.40199 16.9707 3.38342 16.8767 3.38342C16.7826 3.38342 16.6895 3.40199 16.6027 3.43806C16.5158 3.47414 16.437 3.527 16.3706 3.59363Z" fill="#4F008C"/>
</g>
<defs>
<clipPath id="clip0_3782_11444">
<rect width="17.1429" height="17.1429" fill="white" transform="translate(0.428589 0.428589)"/>
</clipPath>
</defs>
</svg>
