<svg width="142" height="40" viewBox="0 0 142 40" fill="none" xmlns="http://www.w3.org/2000/svg">
<g clip-path="url(#clip0_1085_7075)">
<path d="M19.3661 6.51238L12.9068 0L0 13.0358L12.9068 26.0826L19.3657 19.5592L12.9068 13.0358L19.3661 6.51238Z" fill="white"/>
<path d="M19.366 6.51348L12.9082 13.0358L19.366 19.5581L25.8237 13.0358L19.366 6.51348Z" fill="#FF375E"/>
<path d="M34.4531 15.91H37.4821C37.7462 16.9412 38.6181 17.5322 40.0633 17.5322C41.5778 17.5322 42.4953 16.9878 42.4953 16.0491C42.4953 15.1454 42.1396 14.6815 39.8681 14.589C35.9904 14.4268 34.7865 13.15 34.7865 10.9853C34.7865 8.55194 36.7023 7.11487 39.9265 7.11487C43.07 7.11487 44.8485 8.57496 45.2042 10.7651H42.2417C41.9568 10.1161 41.347 9.59472 39.9013 9.59472C38.5241 9.59472 37.6754 10.0696 37.6754 10.8577C37.6754 11.6688 38.0311 12.005 40.2338 12.0976C44.1803 12.2597 45.4194 13.5112 45.4194 15.9215C45.4194 18.5054 43.4347 20.0581 40.1188 20.0581C36.6519 20.0696 34.692 18.3793 34.4512 15.91" fill="white"/>
<path d="M53.6587 17.3931C55.7925 17.3931 57.089 15.8865 57.089 13.5692C57.089 11.298 55.7925 9.79186 53.6587 9.79186C51.5017 9.79186 50.2284 11.2985 50.2284 13.5692C50.2284 15.8869 51.5017 17.3931 53.6587 17.3931ZM53.6587 20.0696C49.8266 20.0696 47.2227 17.3465 47.2227 13.5692C47.2227 9.81489 49.8271 7.11487 53.6587 7.11487C57.5136 7.11487 60.0948 9.81489 60.0948 13.5692C60.0948 17.3465 57.5136 20.0696 53.6587 20.0696Z" fill="white"/>
<path d="M65.9574 19.7102C63.5481 19.7102 62.4121 18.4007 62.4121 16.3612V2.14355H65.3722V16.072C65.3722 16.767 65.728 17.0793 66.2903 17.0793H67.564V19.7097L65.9574 19.7102Z" fill="white"/>
<path d="M78.2788 19.7108V18.2277C77.7761 18.8247 77.1471 19.3001 76.4383 19.619C75.7295 19.9378 74.9588 20.092 74.1832 20.0701C71.441 20.0701 69.7773 18.1582 69.7773 15.296V7.46265H72.7375V14.589C72.7375 16.1882 73.4717 17.3586 75.0779 17.3586C75.7485 17.3366 76.4004 17.1294 76.9627 16.7597C77.525 16.3899 77.9762 15.8715 78.2674 15.261V7.47416H81.2276V19.7338H78.2788V19.7108Z" fill="white"/>
<path d="M88.077 19.7108C85.4954 19.7108 84.291 18.3677 84.291 16.3388V3.41858H87.2512V7.46261H91.1298V10.0816H87.2521V15.9565C87.2306 16.1051 87.2429 16.2567 87.2882 16.3998C87.3335 16.5429 87.4106 16.6736 87.5135 16.782C87.6165 16.8904 87.7426 16.9737 87.8822 17.0254C88.0218 17.0771 88.1713 17.0959 88.3193 17.0803H91.1298V19.7108H88.077Z" fill="white"/>
<path d="M96.0625 2.14355H99.0227V5.17934H96.0625V2.14355ZM96.0625 10.081H93.2861V7.45054H99.0227V19.7102H96.0625V10.081Z" fill="white"/>
<path d="M108.006 17.3931C110.14 17.3931 111.437 15.8865 111.437 13.5692C111.437 11.298 110.14 9.79186 108.006 9.79186C105.849 9.79186 104.576 11.2985 104.576 13.5692C104.576 15.8869 105.861 17.3931 108.006 17.3931ZM108.006 20.0696C104.174 20.0696 101.57 17.3465 101.57 13.5692C101.57 9.81489 104.175 7.11487 108.006 7.11487C111.861 7.11487 114.442 9.81489 114.442 13.5692C114.442 17.3465 111.873 20.0696 108.006 20.0696Z" fill="white"/>
<path d="M116.966 19.7103V7.45059H119.926V8.98023C120.446 8.37195 121.094 7.88875 121.822 7.56599C122.551 7.24324 123.342 7.08909 124.137 7.11483C126.971 7.11483 128.681 9.02676 128.681 11.8635V19.6988H125.72V12.6074C125.72 11.0082 124.963 9.83787 123.231 9.83787C122.543 9.85628 121.873 10.0606 121.289 10.4295C120.706 10.7984 120.232 11.3184 119.915 11.9354V19.6988H116.966V19.7103Z" fill="white"/>
<path d="M131.032 15.91H134.061C134.325 16.9412 135.197 17.5322 136.642 17.5322C138.157 17.5322 139.074 16.9878 139.074 16.0491C139.074 15.1454 138.719 14.6815 136.447 14.589C132.569 14.4268 131.366 13.15 131.366 10.9853C131.366 8.55194 133.281 7.11487 136.506 7.11487C139.649 7.11487 141.428 8.57496 141.783 10.7651H138.821C138.536 10.1161 137.926 9.59472 136.48 9.59472C135.103 9.59472 134.255 10.0696 134.255 10.8577C134.255 11.6688 134.61 12.005 136.813 12.0976C140.759 12.2597 141.999 13.5112 141.999 15.9215C141.999 18.5054 140.014 20.0581 136.698 20.0581C133.231 20.0696 131.271 18.3793 131.03 15.91" fill="white"/>
<path d="M103.841 33.3375C103.839 33.6748 103.885 34.0106 103.979 34.3343C104.061 34.6237 104.189 34.8977 104.359 35.1454C104.519 35.3706 104.726 35.5567 104.967 35.6898C105.221 35.8194 105.502 35.8869 105.787 35.8869C106.072 35.8869 106.353 35.8194 106.608 35.6898C106.851 35.5573 107.062 35.3712 107.225 35.1454C107.402 34.9009 107.534 34.6261 107.615 34.3343C107.799 33.6829 107.799 32.9927 107.615 32.3413C107.534 32.0494 107.402 31.7747 107.225 31.5302C107.059 31.3107 106.848 31.1291 106.608 30.9973C106.353 30.8677 106.072 30.8002 105.787 30.8002C105.502 30.8002 105.221 30.8677 104.967 30.9973C104.727 31.1261 104.519 31.3084 104.359 31.5302C104.183 31.7739 104.054 32.0491 103.979 32.3413C103.884 32.6648 103.838 33.0007 103.841 33.338M103.864 36.9072H102.591V26.2808H103.864V30.9508C103.922 30.8226 103.995 30.7019 104.082 30.5915C104.201 30.4241 104.339 30.2723 104.495 30.1396C104.688 29.9775 104.904 29.8479 105.138 29.7559C105.427 29.6437 105.734 29.5886 106.044 29.5938C106.449 29.59 106.849 29.6776 107.217 29.85C107.584 30.0224 107.908 30.2754 108.166 30.5905C108.456 30.9398 108.677 31.3406 108.82 31.7724C108.988 32.2843 109.07 32.821 109.061 33.3601C109.07 33.8953 108.988 34.4281 108.82 34.9358C108.677 35.3676 108.456 35.7684 108.166 36.1177C107.903 36.429 107.579 36.6816 107.214 36.8592C106.848 37.0309 106.448 37.1179 106.044 37.1139C105.734 37.1202 105.426 37.0651 105.138 36.9518C104.907 36.8595 104.691 36.7347 104.495 36.581C104.338 36.4591 104.198 36.3147 104.082 36.1522C104.002 36.0451 103.93 35.9329 103.864 35.8164V36.9072Z" fill="white"/>
<path d="M112.607 40H111.322L112.572 36.79L109.75 29.7798H111.161L113.238 35.0753L115.303 29.7798H116.622L112.607 40Z" fill="white"/>
<path d="M131.628 36.8697C132.241 36.9018 132.847 36.7264 133.35 36.3713V34.587C133.029 34.8073 132.648 34.9207 132.26 34.9112C132.113 34.9372 131.963 34.9268 131.821 34.8809C131.68 34.835 131.551 34.7549 131.447 34.6476C131.343 34.5403 131.267 34.4091 131.225 34.2652C131.182 34.1213 131.175 33.9692 131.204 33.8219V26.2692H129.047V28.5054H133.36V30.6159H129.047V34.3572C129.031 34.6846 129.08 35.0118 129.19 35.32C129.301 35.6282 129.47 35.9113 129.689 36.1531C129.945 36.4032 130.249 36.5964 130.583 36.7203C130.917 36.8442 131.273 36.8961 131.628 36.8726M138.226 36.8726C138.736 36.8885 139.244 36.8014 139.721 36.6163C140.198 36.4312 140.633 36.1519 141.002 35.7948C141.469 35.3367 141.806 34.7604 141.977 34.126L140.061 33.4771C139.977 33.8055 139.802 34.1029 139.556 34.3347C139.378 34.506 139.167 34.6393 138.936 34.7269C138.706 34.8145 138.46 34.8545 138.214 34.8446C137.671 34.8447 137.149 34.633 136.757 34.2536C136.364 33.7748 136.15 33.1726 136.15 32.5508C136.15 31.9291 136.364 31.3268 136.757 30.848C136.946 30.66 137.17 30.5119 137.416 30.4124C137.663 30.3129 137.926 30.264 138.191 30.2686C138.43 30.2577 138.668 30.2962 138.891 30.382C139.114 30.4677 139.317 30.5987 139.488 30.767C139.717 31.0141 139.886 31.3117 139.981 31.6361L141.92 30.9756C141.759 30.3602 141.443 29.7975 141.002 29.3419C140.622 28.9765 140.174 28.691 139.683 28.502C139.193 28.313 138.67 28.2243 138.146 28.2411C137.598 28.2342 137.054 28.3371 136.546 28.5439C136.038 28.7508 135.576 29.0574 135.186 29.446C134.406 30.2902 133.975 31.4038 133.981 32.5585C133.987 33.7132 134.431 34.8218 135.22 35.6571C135.617 36.0503 136.087 36.3602 136.603 36.569C137.119 36.7779 137.67 36.8816 138.226 36.874M124.435 36.874C125.383 36.9163 126.309 36.5837 127.017 35.9468C127.242 35.7187 127.42 35.4475 127.54 35.149C127.66 34.8505 127.72 34.5308 127.717 34.2085C127.72 33.9078 127.664 33.6093 127.552 33.3308C127.439 33.0522 127.273 32.7991 127.063 32.5863C126.564 32.1139 125.936 31.8032 125.261 31.6941L123.999 31.451C123.472 31.3469 123.185 31.0917 123.185 30.7209C123.185 30.246 123.644 29.9098 124.378 29.9098C124.581 29.9018 124.785 29.9346 124.976 30.0062C125.167 30.0778 125.342 30.1869 125.491 30.3271C125.657 30.5156 125.764 30.7491 125.8 30.9986L127.613 30.5813C127.557 30.0608 127.322 29.5767 126.948 29.2138C126.248 28.5594 125.32 28.2097 124.367 28.2406C123.489 28.2107 122.632 28.517 121.969 29.0982C121.724 29.325 121.53 29.6009 121.397 29.9082C121.265 30.2155 121.198 30.5474 121.2 30.8826C121.19 31.1625 121.237 31.4414 121.338 31.7024C121.438 31.9634 121.59 32.201 121.785 32.4007C122.266 32.8482 122.863 33.1494 123.506 33.2698L124.745 33.5711C125.362 33.7217 125.64 33.9548 125.64 34.3591C125.64 34.869 125.181 35.1703 124.435 35.1703C124.204 35.1791 123.974 35.1417 123.757 35.0602C123.54 34.9787 123.342 34.8547 123.173 34.6954C122.974 34.4911 122.859 34.2176 122.852 33.9308L120.993 34.3481C121.048 34.8997 121.297 35.4134 121.693 35.7967C122.053 36.1569 122.481 36.4384 122.953 36.6238C123.425 36.8093 123.93 36.8941 124.435 36.874Z" fill="white"/>
</g>
<defs>
<clipPath id="clip0_1085_7075">
<rect width="142" height="40" fill="white"/>
</clipPath>
</defs>
</svg>
