<svg width="142" height="40" viewBox="0 0 142 40" fill="none" xmlns="http://www.w3.org/2000/svg">
<g clip-path="url(#clip0_29_44356)">
<path d="M19.3661 6.51238L12.9068 0L0 13.0358L12.9068 26.0826L19.3657 19.5592L12.9068 13.0358L19.3661 6.51238Z" fill="#4F008C"/>
<path d="M19.366 6.51351L12.9082 13.0358L19.366 19.5581L25.8237 13.0358L19.366 6.51351Z" fill="#FF375E"/>
<path d="M34.4533 15.9099H37.4823C37.7464 16.9412 38.6183 17.5321 40.0635 17.5321C41.578 17.5321 42.4956 16.9877 42.4956 16.049C42.4956 15.1453 42.1398 14.6815 39.8683 14.5889C35.9906 14.4268 34.7867 13.1499 34.7867 10.9852C34.7867 8.55191 36.7025 7.11484 39.9267 7.11484C43.0702 7.11484 44.8488 8.57493 45.2045 10.7651H42.242C41.957 10.1161 41.3472 9.59469 39.9016 9.59469C38.5243 9.59469 37.6756 10.0696 37.6756 10.8576C37.6756 11.6688 38.0313 12.005 40.234 12.0976C44.1806 12.2597 45.4196 13.5111 45.4196 15.9214C45.4196 18.5054 43.4349 20.058 40.1191 20.058C36.6522 20.0696 34.6922 18.3792 34.4514 15.9099" fill="#4F008C"/>
<path d="M53.6585 17.393C55.7923 17.393 57.0888 15.8864 57.0888 13.5692C57.0888 11.298 55.7923 9.79183 53.6585 9.79183C51.5014 9.79183 50.2281 11.2985 50.2281 13.5692C50.2281 15.8869 51.5014 17.393 53.6585 17.393ZM53.6585 20.0696C49.8264 20.0696 47.2224 17.3465 47.2224 13.5692C47.2224 9.81486 49.8269 7.11484 53.6585 7.11484C57.5134 7.11484 60.0945 9.81486 60.0945 13.5692C60.0945 17.3465 57.5134 20.0696 53.6585 20.0696Z" fill="#4F008C"/>
<path d="M65.9579 19.7103C63.5486 19.7103 62.4126 18.4008 62.4126 16.3613V2.14362H65.3727V16.072C65.3727 16.7671 65.7285 17.0793 66.2908 17.0793H67.5645V19.7098L65.9579 19.7103Z" fill="#4F008C"/>
<path d="M78.2791 19.7108V18.2276C77.7763 18.8246 77.1474 19.3001 76.4385 19.6189C75.7297 19.9378 74.9591 20.0919 74.1834 20.07C71.4412 20.07 69.7776 18.1581 69.7776 15.296V7.46259H72.7378V14.5889C72.7378 16.1881 73.472 17.3585 75.0781 17.3585C75.7488 17.3365 76.4006 17.1294 76.9629 16.7596C77.5252 16.3898 77.9765 15.8715 78.2677 15.2609V7.4741H81.2278V19.7338H78.2791V19.7108Z" fill="#4F008C"/>
<path d="M88.0775 19.7108C85.4959 19.7108 84.2915 18.3677 84.2915 16.3387V3.41855H87.2516V7.46258H91.1303V10.0815H87.2526V15.9564C87.231 16.1051 87.2434 16.2567 87.2887 16.3998C87.334 16.5429 87.4111 16.6736 87.514 16.782C87.6169 16.8904 87.743 16.9736 87.8827 17.0253C88.0223 17.077 88.1718 17.0958 88.3197 17.0803H91.1303V19.7108H88.0775Z" fill="#4F008C"/>
<path d="M96.0623 2.14362H99.0224V5.1794H96.0623V2.14362ZM96.0623 10.0811H93.2859V7.4506H99.0224V19.7103H96.0623V10.0811Z" fill="#4F008C"/>
<path d="M108.006 17.393C110.14 17.393 111.436 15.8864 111.436 13.5692C111.436 11.298 110.14 9.79183 108.006 9.79183C105.849 9.79183 104.576 11.2985 104.576 13.5692C104.576 15.8869 105.861 17.393 108.006 17.393ZM108.006 20.0696C104.174 20.0696 101.57 17.3465 101.57 13.5692C101.57 9.81486 104.174 7.11484 108.006 7.11484C111.861 7.11484 114.442 9.81486 114.442 13.5692C114.442 17.3465 111.872 20.0696 108.006 20.0696Z" fill="#4F008C"/>
<path d="M116.966 19.7103V7.45059H119.926V8.98023C120.446 8.37195 121.094 7.88875 121.823 7.56599C122.552 7.24324 123.342 7.08909 124.138 7.11483C126.971 7.11483 128.681 9.02676 128.681 11.8635V19.6988H125.721V12.6074C125.721 11.0082 124.964 9.83787 123.231 9.83787C122.544 9.85628 121.873 10.0606 121.29 10.4295C120.707 10.7984 120.232 11.3184 119.916 11.9354V19.6988H116.966V19.7103Z" fill="#4F008C"/>
<path d="M131.032 15.9099H134.061C134.325 16.9412 135.197 17.5321 136.642 17.5321C138.156 17.5321 139.074 16.9877 139.074 16.049C139.074 15.1453 138.718 14.6815 136.447 14.5889C132.569 14.4268 131.365 13.1499 131.365 10.9852C131.365 8.55191 133.281 7.11484 136.505 7.11484C139.649 7.11484 141.427 8.57493 141.783 10.7651H138.82C138.535 10.1161 137.926 9.59469 136.48 9.59469C135.103 9.59469 134.254 10.0696 134.254 10.8576C134.254 11.6688 134.61 12.005 136.812 12.0976C140.759 12.2597 141.998 13.5111 141.998 15.9214C141.998 18.5054 140.013 20.058 136.697 20.058C133.231 20.0696 131.271 18.3792 131.03 15.9099" fill="#4F008C"/>
<path d="M103.841 33.3375C103.839 33.6747 103.885 34.0106 103.979 34.3342C104.061 34.6237 104.189 34.8977 104.359 35.1453C104.518 35.3706 104.726 35.5566 104.967 35.6898C105.221 35.8193 105.502 35.8868 105.787 35.8868C106.072 35.8868 106.353 35.8193 106.607 35.6898C106.851 35.5572 107.062 35.3712 107.225 35.1453C107.402 34.9009 107.534 34.6261 107.615 34.3342C107.798 33.6828 107.798 32.9926 107.615 32.3412C107.534 32.0494 107.402 31.7746 107.225 31.5301C107.058 31.3106 106.848 31.129 106.607 30.9972C106.353 30.8676 106.072 30.8001 105.787 30.8001C105.502 30.8001 105.221 30.8676 104.967 30.9972C104.727 31.1261 104.519 31.3083 104.359 31.5301C104.182 31.7739 104.054 32.0491 103.979 32.3412C103.884 32.6647 103.838 33.0007 103.841 33.338M103.864 36.9071H102.591V26.2807H103.864V30.9507C103.922 30.8225 103.995 30.7019 104.082 30.5914C104.2 30.424 104.339 30.2722 104.495 30.1396C104.687 29.9775 104.904 29.8479 105.138 29.7559C105.426 29.6436 105.734 29.5886 106.044 29.5937C106.449 29.59 106.849 29.6775 107.216 29.8499C107.584 30.0224 107.908 30.2754 108.166 30.5905C108.455 30.9397 108.677 31.3406 108.82 31.7723C108.988 32.2842 109.069 32.8209 109.061 33.36C109.069 33.8952 108.988 34.428 108.82 34.9357C108.677 35.3675 108.455 35.7684 108.166 36.1176C107.903 36.429 107.579 36.6815 107.214 36.8592C106.847 37.0308 106.448 37.1178 106.044 37.1139C105.734 37.1201 105.426 37.065 105.138 36.9517C104.907 36.8594 104.691 36.7346 104.495 36.581C104.337 36.459 104.198 36.3146 104.082 36.1522C104.002 36.045 103.929 35.9329 103.864 35.8164V36.9071Z" fill="#4F008C"/>
<path d="M112.606 40H111.322L112.572 36.7901L109.75 29.7798H111.161L113.238 35.0753L115.302 29.7798H116.622L112.606 40Z" fill="#4F008C"/>
<path d="M131.628 36.8697C132.241 36.9018 132.847 36.7264 133.349 36.3714V34.587C133.028 34.8074 132.647 34.9207 132.259 34.9113C132.113 34.9373 131.963 34.9269 131.821 34.8809C131.68 34.835 131.551 34.7549 131.447 34.6476C131.343 34.5404 131.267 34.4091 131.224 34.2652C131.182 34.1214 131.175 33.9692 131.204 33.822V26.2692H129.047V28.5054H133.36V30.6159H129.047V34.3573C129.031 34.6846 129.08 35.0118 129.19 35.32C129.3 35.6282 129.47 35.9114 129.689 36.1531C129.945 36.4032 130.249 36.5964 130.583 36.7203C130.917 36.8443 131.273 36.8961 131.628 36.8726M138.225 36.8726C138.736 36.8885 139.244 36.8014 139.721 36.6163C140.198 36.4313 140.633 36.152 141.002 35.7948C141.469 35.3368 141.805 34.7605 141.977 34.1261L140.061 33.4771C139.976 33.8055 139.801 34.103 139.556 34.3347C139.377 34.506 139.167 34.6393 138.936 34.7269C138.706 34.8145 138.46 34.8545 138.214 34.8446C137.671 34.8447 137.149 34.633 136.757 34.2537C136.364 33.7748 136.149 33.1726 136.149 32.5509C136.149 31.9291 136.364 31.3269 136.757 30.8481C136.946 30.66 137.17 30.5119 137.416 30.4124C137.662 30.3129 137.926 30.264 138.191 30.2686C138.429 30.2577 138.668 30.2963 138.891 30.382C139.114 30.4677 139.317 30.5988 139.488 30.767C139.717 31.0142 139.885 31.3117 139.981 31.6361L141.92 30.9756C141.759 30.3603 141.442 29.7975 141.002 29.3419C140.622 28.9765 140.174 28.691 139.683 28.502C139.193 28.3131 138.67 28.2244 138.146 28.2411C137.598 28.2342 137.054 28.3371 136.546 28.544C136.038 28.7508 135.575 29.0574 135.185 29.446C134.405 30.2903 133.974 31.4038 133.981 32.5585C133.987 33.7133 134.431 34.8218 135.22 35.6571C135.617 36.0503 136.087 36.3602 136.602 36.5691C137.118 36.7779 137.67 36.8816 138.226 36.8741M124.435 36.8741C125.382 36.9164 126.308 36.5837 127.016 35.9469C127.242 35.7187 127.42 35.4475 127.54 35.149C127.66 34.8505 127.72 34.5308 127.716 34.2086C127.72 33.9078 127.664 33.6094 127.551 33.3308C127.439 33.0522 127.273 32.7991 127.062 32.5863C126.564 32.1139 125.936 31.8032 125.261 31.6942L123.999 31.451C123.472 31.3469 123.185 31.0917 123.185 30.7209C123.185 30.2461 123.643 29.9098 124.378 29.9098C124.581 29.9018 124.784 29.9346 124.975 30.0062C125.166 30.0778 125.341 30.1869 125.49 30.3271C125.656 30.5157 125.764 30.7491 125.8 30.9987L127.613 30.5814C127.557 30.0608 127.322 29.5767 126.948 29.2138C126.247 28.5594 125.32 28.2098 124.366 28.2406C123.488 28.2107 122.632 28.5171 121.968 29.0982C121.724 29.325 121.529 29.6009 121.397 29.9082C121.265 30.2155 121.197 30.5474 121.2 30.8826C121.19 31.1625 121.237 31.4415 121.337 31.7025C121.438 31.9635 121.59 32.2011 121.785 32.4007C122.266 32.8482 122.862 33.1495 123.506 33.2699L124.745 33.5711C125.362 33.7217 125.64 33.9548 125.64 34.3592C125.64 34.8691 125.181 35.1703 124.435 35.1703C124.204 35.1791 123.973 35.1417 123.757 35.0602C123.54 34.9787 123.342 34.8547 123.173 34.6954C122.973 34.4911 122.859 34.2177 122.852 33.9308L120.993 34.3481C121.048 34.8998 121.296 35.4134 121.693 35.7967C122.052 36.1569 122.481 36.4384 122.953 36.6239C123.425 36.8093 123.929 36.8941 124.435 36.8741Z" fill="#4F008C"/>
</g>
<defs>
<clipPath id="clip0_29_44356">
<rect width="142" height="40" fill="white"/>
</clipPath>
</defs>
</svg>
