<svg width="16" height="16" viewBox="0 0 24 24" fill="none" xmlns="http://www.w3.org/2000/svg">
<g opacity="0.2" clip-path="url(#clip0_418_23063)">
<path d="M17.1702 24C17.0386 24.0007 16.9082 23.9755 16.7863 23.9257C16.6645 23.876 16.5537 23.8027 16.4602 23.71L8.29023 15.54C7.82459 15.0755 7.45517 14.5238 7.2031 13.9163C6.95104 13.3089 6.82129 12.6577 6.82129 12C6.82129 11.3423 6.95104 10.6911 7.2031 10.0837C7.45517 9.4762 7.82459 8.92445 8.29023 8.45999L16.4602 0.290002C16.5535 0.196764 16.6642 0.122803 16.786 0.0723425C16.9078 0.0218822 17.0384 -0.00408935 17.1702 -0.00408936C17.3021 -0.00408936 17.4327 0.0218822 17.5545 0.0723425C17.6763 0.122803 17.787 0.196764 17.8802 0.290002C17.9735 0.38324 18.0474 0.49393 18.0979 0.615752C18.1483 0.737574 18.1743 0.868142 18.1743 1C18.1743 1.13186 18.1483 1.26243 18.0979 1.38425C18.0474 1.50607 17.9735 1.61676 17.8802 1.71L9.71023 9.87999C9.14843 10.4425 8.83287 11.205 8.83287 12C8.83287 12.795 9.14843 13.5575 9.71023 14.12L17.8802 22.29C17.974 22.3829 18.0484 22.4935 18.0991 22.6154C18.1499 22.7373 18.176 22.868 18.176 23C18.176 23.132 18.1499 23.2627 18.0991 23.3846C18.0484 23.5064 17.974 23.617 17.8802 23.71C17.7868 23.8027 17.676 23.876 17.5541 23.9257C17.4323 23.9755 17.3018 24.0007 17.1702 24Z" fill="#4F008C"/>
</g>
<defs>
<clipPath id="clip0_418_23063">
<rect width="24" height="24" fill="white"/>
</clipPath>
</defs>
</svg>
